G04*
G04 #@! TF.GenerationSoftware,Altium Limited,Altium Designer,24.1.2 (44)*
G04*
G04 Layer_Color=32896*
%FSLAX44Y44*%
%MOMM*%
G71*
G04*
G04 #@! TF.SameCoordinates,89316901-82C1-47DA-9B1A-9EFE6001FB66*
G04*
G04*
G04 #@! TF.FilePolarity,Positive*
G04*
G01*
G75*
%ADD10C,0.1270*%
%ADD12C,0.1016*%
%ADD18C,0.2500*%
D10*
X39878Y145288D02*
X56896D01*
X39878Y106426D02*
Y145288D01*
Y106426D02*
X56896D01*
Y145288D01*
X281686Y153416D02*
Y192278D01*
X264668Y153416D02*
X281686D01*
X264668D02*
Y192278D01*
X281686D01*
D12*
X54610Y121412D02*
Y130048D01*
X41910Y121412D02*
Y130048D01*
X266700Y168402D02*
Y177038D01*
X279400Y168402D02*
Y177038D01*
D18*
X52110Y88857D02*
Y83779D01*
X49571Y81240D01*
X47032Y83779D01*
Y88857D01*
X44493D02*
X41953D01*
X43223D01*
Y81240D01*
X44493D01*
X41953D01*
X38145D02*
Y88857D01*
X33066Y81240D01*
Y88857D01*
X81322Y139658D02*
X82591Y140927D01*
X85130D01*
X86400Y139658D01*
Y134580D01*
X85130Y133310D01*
X82591D01*
X81322Y134580D01*
Y137119D01*
X83861D01*
X78783Y133310D02*
Y140927D01*
X73704Y133310D01*
Y140927D01*
X71165D02*
Y133310D01*
X67356D01*
X66087Y134580D01*
Y139658D01*
X67356Y140927D01*
X71165D01*
X91480Y116798D02*
X88941D01*
X90210D01*
Y109180D01*
X91480D01*
X88941D01*
X81323Y116798D02*
X83862D01*
X85132Y115528D01*
Y110450D01*
X83862Y109180D01*
X81323D01*
X80054Y110450D01*
Y115528D01*
X81323Y116798D01*
X77515Y109180D02*
X74975D01*
X76245D01*
Y116798D01*
X77515Y115528D01*
X71167D02*
X69897Y116798D01*
X67358D01*
X66088Y115528D01*
Y114258D01*
X67358Y112989D01*
X68627D01*
X67358D01*
X66088Y111719D01*
Y110450D01*
X67358Y109180D01*
X69897D01*
X71167Y110450D01*
X279440Y215858D02*
X276901D01*
X278170D01*
Y208240D01*
X279440D01*
X276901D01*
X269283Y215858D02*
X271822D01*
X273092Y214588D01*
Y209510D01*
X271822Y208240D01*
X269283D01*
X268014Y209510D01*
Y214588D01*
X269283Y215858D01*
X265475Y208240D02*
X262935D01*
X264205D01*
Y215858D01*
X265475Y214588D01*
X259127Y215858D02*
X254048D01*
Y214588D01*
X259127Y209510D01*
Y208240D01*
X57474Y395320D02*
X54935D01*
X56205D01*
Y387702D01*
X57474D01*
X54935D01*
X51126Y394050D02*
X49857Y395320D01*
X47318D01*
X46048Y394050D01*
Y392780D01*
X47318Y391511D01*
X48587D01*
X47318D01*
X46048Y390241D01*
Y388972D01*
X47318Y387702D01*
X49857D01*
X51126Y388972D01*
X43509D02*
X42239Y387702D01*
X39700D01*
X38431Y388972D01*
Y394050D01*
X39700Y395320D01*
X42239D01*
X43509Y394050D01*
Y392780D01*
X42239Y391511D01*
X38431D01*
X280710Y85048D02*
X278171D01*
X279440D01*
Y77430D01*
X280710D01*
X278171D01*
X270553Y85048D02*
X273092D01*
X274362Y83778D01*
Y78700D01*
X273092Y77430D01*
X270553D01*
X269284Y78700D01*
Y83778D01*
X270553Y85048D01*
X266745Y77430D02*
X264205D01*
X265475D01*
Y85048D01*
X266745Y83778D01*
X255318Y85048D02*
X260397D01*
Y81239D01*
X257857Y82508D01*
X256588D01*
X255318Y81239D01*
Y78700D01*
X256588Y77430D01*
X259127D01*
X260397Y78700D01*
X279440Y112987D02*
X276901D01*
X278170D01*
Y105370D01*
X279440D01*
X276901D01*
X269283Y112987D02*
X271822D01*
X273092Y111718D01*
Y106640D01*
X271822Y105370D01*
X269283D01*
X268014Y106640D01*
Y111718D01*
X269283Y112987D01*
X260396Y105370D02*
X265475D01*
X260396Y110448D01*
Y111718D01*
X261666Y112987D01*
X264205D01*
X265475Y111718D01*
X280710Y138387D02*
X278171D01*
X279440D01*
Y130770D01*
X280710D01*
X278171D01*
X270553Y138387D02*
X273092D01*
X274362Y137118D01*
Y132040D01*
X273092Y130770D01*
X270553D01*
X269284Y132040D01*
Y137118D01*
X270553Y138387D01*
X266745Y137118D02*
X265475Y138387D01*
X262936D01*
X261666Y137118D01*
Y132040D01*
X262936Y130770D01*
X265475D01*
X266745Y132040D01*
Y137118D01*
X254040Y163787D02*
X251501D01*
X252770D01*
Y156170D01*
X254040D01*
X251501D01*
X243883Y163787D02*
X246423D01*
X247692Y162518D01*
Y157440D01*
X246423Y156170D01*
X243883D01*
X242614Y157440D01*
Y162518D01*
X243883Y163787D01*
X236266Y156170D02*
Y163787D01*
X240075Y159979D01*
X234996D01*
X254040Y187917D02*
X251501D01*
X252770D01*
Y180300D01*
X254040D01*
X251501D01*
X243883Y187917D02*
X246423D01*
X247692Y186648D01*
Y181570D01*
X246423Y180300D01*
X243883D01*
X242614Y181570D01*
Y186648D01*
X243883Y187917D01*
X240075Y180300D02*
X237535D01*
X238805D01*
Y187917D01*
X240075Y186648D01*
X228648Y187917D02*
X231187Y186648D01*
X233727Y184109D01*
Y181570D01*
X232457Y180300D01*
X229918D01*
X228648Y181570D01*
Y182839D01*
X229918Y184109D01*
X233727D01*
X279440Y241257D02*
X276901D01*
X278170D01*
Y233640D01*
X279440D01*
X276901D01*
X269283Y241257D02*
X271822D01*
X273092Y239988D01*
Y234910D01*
X271822Y233640D01*
X269283D01*
X268014Y234910D01*
Y239988D01*
X269283Y241257D01*
X260396D02*
X265475D01*
Y237449D01*
X262935Y238718D01*
X261666D01*
X260396Y237449D01*
Y234910D01*
X261666Y233640D01*
X264205D01*
X265475Y234910D01*
X279440Y265387D02*
X276901D01*
X278170D01*
Y257770D01*
X279440D01*
X276901D01*
X269283Y265387D02*
X271822D01*
X273092Y264118D01*
Y259040D01*
X271822Y257770D01*
X269283D01*
X268014Y259040D01*
Y264118D01*
X269283Y265387D01*
X265475Y257770D02*
X262935D01*
X264205D01*
Y265387D01*
X265475Y264118D01*
X259127D02*
X257857Y265387D01*
X255318D01*
X254048Y264118D01*
Y262848D01*
X255318Y261579D01*
X254048Y260309D01*
Y259040D01*
X255318Y257770D01*
X257857D01*
X259127Y259040D01*
Y260309D01*
X257857Y261579D01*
X259127Y262848D01*
Y264118D01*
X257857Y261579D02*
X255318D01*
X279440Y289517D02*
X276901D01*
X278170D01*
Y281900D01*
X279440D01*
X276901D01*
X269283Y289517D02*
X271822D01*
X273092Y288248D01*
Y283170D01*
X271822Y281900D01*
X269283D01*
X268014Y283170D01*
Y288248D01*
X269283Y289517D01*
X265475Y281900D02*
X262935D01*
X264205D01*
Y289517D01*
X265475Y288248D01*
X259127Y283170D02*
X257857Y281900D01*
X255318D01*
X254048Y283170D01*
Y288248D01*
X255318Y289517D01*
X257857D01*
X259127Y288248D01*
Y286978D01*
X257857Y285709D01*
X254048D01*
X273092Y314918D02*
X274361Y316187D01*
X276900D01*
X278170Y314918D01*
Y309840D01*
X276900Y308570D01*
X274361D01*
X273092Y309840D01*
Y312379D01*
X275631D01*
X270553Y308570D02*
Y316187D01*
X265474Y308570D01*
Y316187D01*
X262935D02*
Y308570D01*
X259126D01*
X257857Y309840D01*
Y314918D01*
X259126Y316187D01*
X262935D01*
X278170Y341587D02*
X275631D01*
X276900D01*
Y333970D01*
X278170D01*
X275631D01*
X268013Y341587D02*
X270553D01*
X271822Y340318D01*
Y335240D01*
X270553Y333970D01*
X268013D01*
X266744Y335240D01*
Y340318D01*
X268013Y341587D01*
X259126Y333970D02*
X264205D01*
X259126Y339048D01*
Y340318D01*
X260396Y341587D01*
X262935D01*
X264205Y340318D01*
X256587Y333970D02*
X254048D01*
X255317D01*
Y341587D01*
X256587Y340318D01*
X279440Y356830D02*
Y364448D01*
X275631D01*
X274362Y363178D01*
Y360639D01*
X275631Y359369D01*
X279440D01*
X276901D02*
X274362Y356830D01*
X271822Y364448D02*
X266744Y356830D01*
Y364448D02*
X271822Y356830D01*
X264205Y364448D02*
Y356830D01*
X260396D01*
X259127Y358100D01*
Y363178D01*
X260396Y364448D01*
X264205D01*
X256587Y363178D02*
X255318Y364448D01*
X252779D01*
X251509Y363178D01*
Y358100D01*
X252779Y356830D01*
X255318D01*
X256587Y358100D01*
Y363178D01*
X279440Y391118D02*
X274362D01*
X276901D01*
Y383500D01*
X271822Y391118D02*
X266744Y383500D01*
Y391118D02*
X271822Y383500D01*
X264205Y391118D02*
Y383500D01*
X260396D01*
X259127Y384770D01*
Y389848D01*
X260396Y391118D01*
X264205D01*
X256587Y389848D02*
X255318Y391118D01*
X252779D01*
X251509Y389848D01*
Y384770D01*
X252779Y383500D01*
X255318D01*
X256587Y384770D01*
Y389848D01*
X279440Y416517D02*
X276901D01*
X278170D01*
Y408900D01*
X279440D01*
X276901D01*
X269283Y416517D02*
X271822D01*
X273092Y415248D01*
Y410170D01*
X271822Y408900D01*
X269283D01*
X268014Y410170D01*
Y415248D01*
X269283Y416517D01*
X260396Y408900D02*
X265475D01*
X260396Y413978D01*
Y415248D01*
X261666Y416517D01*
X264205D01*
X265475Y415248D01*
X252779Y408900D02*
X257857D01*
X252779Y413978D01*
Y415248D01*
X254048Y416517D01*
X256587D01*
X257857Y415248D01*
X279440Y441917D02*
X276901D01*
X278170D01*
Y434300D01*
X279440D01*
X276901D01*
X269283Y441917D02*
X271822D01*
X273092Y440648D01*
Y435570D01*
X271822Y434300D01*
X269283D01*
X268014Y435570D01*
Y440648D01*
X269283Y441917D01*
X260396Y434300D02*
X265475D01*
X260396Y439378D01*
Y440648D01*
X261666Y441917D01*
X264205D01*
X265475Y440648D01*
X257857D02*
X256587Y441917D01*
X254048D01*
X252779Y440648D01*
Y439378D01*
X254048Y438109D01*
X255318D01*
X254048D01*
X252779Y436839D01*
Y435570D01*
X254048Y434300D01*
X256587D01*
X257857Y435570D01*
X273092Y467318D02*
X274361Y468587D01*
X276900D01*
X278170Y467318D01*
Y462240D01*
X276900Y460970D01*
X274361D01*
X273092Y462240D01*
Y464779D01*
X275631D01*
X270553Y460970D02*
Y468587D01*
X265474Y460970D01*
Y468587D01*
X262935D02*
Y460970D01*
X259126D01*
X257857Y462240D01*
Y467318D01*
X259126Y468587D01*
X262935D01*
X278170Y493988D02*
X276900Y495257D01*
X274361D01*
X273092Y493988D01*
Y492718D01*
X274361Y491449D01*
X275631D01*
X274361D01*
X273092Y490179D01*
Y488910D01*
X274361Y487640D01*
X276900D01*
X278170Y488910D01*
X270553Y495257D02*
Y490179D01*
X268013Y487640D01*
X265474Y490179D01*
Y495257D01*
X262935Y493988D02*
X261665Y495257D01*
X259126D01*
X257857Y493988D01*
Y492718D01*
X259126Y491449D01*
X260396D01*
X259126D01*
X257857Y490179D01*
Y488910D01*
X259126Y487640D01*
X261665D01*
X262935Y488910D01*
X56204Y165450D02*
X53665D01*
X54935D01*
Y157832D01*
X56204D01*
X53665D01*
X46048Y165450D02*
X48587D01*
X49856Y164180D01*
Y159102D01*
X48587Y157832D01*
X46048D01*
X44778Y159102D01*
Y164180D01*
X46048Y165450D01*
X42239Y157832D02*
X39700D01*
X40969D01*
Y165450D01*
X42239Y164180D01*
X30812Y157832D02*
X35891D01*
X30812Y162910D01*
Y164180D01*
X32082Y165450D01*
X34621D01*
X35891Y164180D01*
X99100Y191728D02*
X96561D01*
X97830D01*
Y184110D01*
X99100D01*
X96561D01*
X88943Y191728D02*
X91482D01*
X92752Y190458D01*
Y185380D01*
X91482Y184110D01*
X88943D01*
X87674Y185380D01*
Y190458D01*
X88943Y191728D01*
X85135Y184110D02*
X82595D01*
X83865D01*
Y191728D01*
X85135Y190458D01*
X74978Y184110D02*
Y191728D01*
X78787Y187919D01*
X73708D01*
X99100Y218398D02*
X96561D01*
X97830D01*
Y210780D01*
X99100D01*
X96561D01*
X88943Y218398D02*
X91482D01*
X92752Y217128D01*
Y212050D01*
X91482Y210780D01*
X88943D01*
X87674Y212050D01*
Y217128D01*
X88943Y218398D01*
X80056Y210780D02*
X85135D01*
X80056Y215858D01*
Y217128D01*
X81326Y218398D01*
X83865D01*
X85135Y217128D01*
X77517Y218398D02*
X72439D01*
Y217128D01*
X77517Y212050D01*
Y210780D01*
X99100Y242528D02*
X96561D01*
X97830D01*
Y234910D01*
X99100D01*
X96561D01*
X88943Y242528D02*
X91482D01*
X92752Y241258D01*
Y236180D01*
X91482Y234910D01*
X88943D01*
X87674Y236180D01*
Y241258D01*
X88943Y242528D01*
X80056Y234910D02*
X85135D01*
X80056Y239988D01*
Y241258D01*
X81326Y242528D01*
X83865D01*
X85135Y241258D01*
X72439Y242528D02*
X74978Y241258D01*
X77517Y238719D01*
Y236180D01*
X76247Y234910D01*
X73708D01*
X72439Y236180D01*
Y237449D01*
X73708Y238719D01*
X77517D01*
X57474Y267050D02*
X54935D01*
X56205D01*
Y259432D01*
X57474D01*
X54935D01*
X47318Y267050D02*
X49857D01*
X51126Y265780D01*
Y260702D01*
X49857Y259432D01*
X47318D01*
X46048Y260702D01*
Y265780D01*
X47318Y267050D01*
X38431Y259432D02*
X43509D01*
X38431Y264510D01*
Y265780D01*
X39700Y267050D01*
X42239D01*
X43509Y265780D01*
X30813Y267050D02*
X35891D01*
Y263241D01*
X33352Y264510D01*
X32083D01*
X30813Y263241D01*
Y260702D01*
X32083Y259432D01*
X34622D01*
X35891Y260702D01*
X57474Y292450D02*
X54935D01*
X56205D01*
Y284832D01*
X57474D01*
X54935D01*
X47318Y292450D02*
X49857D01*
X51126Y291180D01*
Y286102D01*
X49857Y284832D01*
X47318D01*
X46048Y286102D01*
Y291180D01*
X47318Y292450D01*
X43509Y291180D02*
X42239Y292450D01*
X39700D01*
X38431Y291180D01*
Y289910D01*
X39700Y288641D01*
X40970D01*
X39700D01*
X38431Y287371D01*
Y286102D01*
X39700Y284832D01*
X42239D01*
X43509Y286102D01*
X35891Y291180D02*
X34622Y292450D01*
X32083D01*
X30813Y291180D01*
Y289910D01*
X32083Y288641D01*
X33352D01*
X32083D01*
X30813Y287371D01*
Y286102D01*
X32083Y284832D01*
X34622D01*
X35891Y286102D01*
X57474Y319120D02*
X54935D01*
X56205D01*
Y311502D01*
X57474D01*
X54935D01*
X47318Y319120D02*
X49857D01*
X51126Y317850D01*
Y312772D01*
X49857Y311502D01*
X47318D01*
X46048Y312772D01*
Y317850D01*
X47318Y319120D01*
X43509Y317850D02*
X42239Y319120D01*
X39700D01*
X38431Y317850D01*
Y316580D01*
X39700Y315311D01*
X40970D01*
X39700D01*
X38431Y314041D01*
Y312772D01*
X39700Y311502D01*
X42239D01*
X43509Y312772D01*
X30813Y311502D02*
X35891D01*
X30813Y316580D01*
Y317850D01*
X32083Y319120D01*
X34622D01*
X35891Y317850D01*
X57474Y345790D02*
X54935D01*
X56205D01*
Y338172D01*
X57474D01*
X54935D01*
X51126Y344520D02*
X49857Y345790D01*
X47318D01*
X46048Y344520D01*
Y343250D01*
X47318Y341981D01*
X48587D01*
X47318D01*
X46048Y340711D01*
Y339442D01*
X47318Y338172D01*
X49857D01*
X51126Y339442D01*
X38431Y345790D02*
X43509D01*
Y341981D01*
X40970Y343250D01*
X39700D01*
X38431Y341981D01*
Y339442D01*
X39700Y338172D01*
X42239D01*
X43509Y339442D01*
X57474Y369920D02*
X54935D01*
X56205D01*
Y362302D01*
X57474D01*
X54935D01*
X51126Y368650D02*
X49857Y369920D01*
X47318D01*
X46048Y368650D01*
Y367380D01*
X47318Y366111D01*
X48587D01*
X47318D01*
X46048Y364841D01*
Y363572D01*
X47318Y362302D01*
X49857D01*
X51126Y363572D01*
X39700Y362302D02*
Y369920D01*
X43509Y366111D01*
X38431D01*
X57474Y420720D02*
X54935D01*
X56205D01*
Y413102D01*
X57474D01*
X54935D01*
X51126Y419450D02*
X49857Y420720D01*
X47318D01*
X46048Y419450D01*
Y418180D01*
X47318Y416911D01*
X48587D01*
X47318D01*
X46048Y415641D01*
Y414372D01*
X47318Y413102D01*
X49857D01*
X51126Y414372D01*
X38431Y420720D02*
X40970Y419450D01*
X43509Y416911D01*
Y414372D01*
X42239Y413102D01*
X39700D01*
X38431Y414372D01*
Y415641D01*
X39700Y416911D01*
X43509D01*
X45762Y445728D02*
X50840D01*
Y438110D01*
X45762D01*
X50840Y441919D02*
X48301D01*
X43222Y438110D02*
Y445728D01*
X38144Y438110D01*
Y445728D01*
X56204Y470250D02*
X54935Y471520D01*
X52396D01*
X51126Y470250D01*
Y468980D01*
X52396Y467711D01*
X53665D01*
X52396D01*
X51126Y466441D01*
Y465172D01*
X52396Y463902D01*
X54935D01*
X56204Y465172D01*
X48587Y471520D02*
Y466441D01*
X46048Y463902D01*
X43508Y466441D01*
Y471520D01*
X40969Y470250D02*
X39700Y471520D01*
X37160D01*
X35891Y470250D01*
Y468980D01*
X37160Y467711D01*
X38430D01*
X37160D01*
X35891Y466441D01*
Y465172D01*
X37160Y463902D01*
X39700D01*
X40969Y465172D01*
X51126Y495650D02*
X52396Y496920D01*
X54935D01*
X56204Y495650D01*
Y490572D01*
X54935Y489302D01*
X52396D01*
X51126Y490572D01*
Y493111D01*
X53665D01*
X48587Y489302D02*
Y496920D01*
X43508Y489302D01*
Y496920D01*
X40969D02*
Y489302D01*
X37160D01*
X35891Y490572D01*
Y495650D01*
X37160Y496920D01*
X40969D01*
X148635Y403057D02*
Y414060D01*
X165140D01*
Y403057D01*
X156888Y414060D02*
Y408559D01*
X151386Y386552D02*
X148635Y389303D01*
Y394805D01*
X151386Y397555D01*
X154137D01*
X156888Y394805D01*
Y389303D01*
X159639Y386552D01*
X162389D01*
X165140Y389303D01*
Y394805D01*
X162389Y397555D01*
X165140Y381051D02*
X148635D01*
Y372798D01*
X151386Y370048D01*
X156888D01*
X159639Y372798D01*
Y381051D01*
X151386Y364546D02*
X148635Y361795D01*
Y356294D01*
X151386Y353543D01*
X154137D01*
X156888Y356294D01*
Y359044D01*
Y356294D01*
X159639Y353543D01*
X162389D01*
X165140Y356294D01*
Y361795D01*
X162389Y364546D01*
X165140Y337038D02*
Y348041D01*
X154137Y337038D01*
X151386D01*
X148635Y339789D01*
Y345291D01*
X151386Y348041D01*
X154137Y331537D02*
X165140Y320534D01*
X159639Y326035D01*
X154137Y320534D01*
X165140Y331537D01*
X148635Y315032D02*
X165140D01*
Y306780D01*
X162389Y304029D01*
X151386D01*
X148635Y306780D01*
Y315032D01*
X154137Y295777D02*
Y290275D01*
X156888Y287524D01*
X165140D01*
Y295777D01*
X162389Y298527D01*
X159639Y295777D01*
Y287524D01*
X151386Y279272D02*
X154137D01*
Y282023D01*
Y276521D01*
Y279272D01*
X162389D01*
X165140Y276521D01*
Y268269D02*
X154137D01*
Y260016D01*
X156888Y257266D01*
X165140D01*
Y243512D02*
Y249013D01*
X162389Y251764D01*
X156888D01*
X154137Y249013D01*
Y243512D01*
X156888Y240761D01*
X159639D01*
Y251764D01*
X154137Y235259D02*
X162389D01*
X165140Y232509D01*
X162389Y229758D01*
X165140Y227007D01*
X162389Y224256D01*
X154137D01*
X165140Y218755D02*
Y213253D01*
Y216004D01*
X148635D01*
Y218755D01*
X165140Y196749D02*
Y202250D01*
X162389Y205001D01*
X156888D01*
X154137Y202250D01*
Y196749D01*
X156888Y193998D01*
X159639D01*
Y205001D01*
X154137Y188496D02*
X165140Y182995D01*
X154137Y177493D01*
X165140Y163739D02*
Y169241D01*
X162389Y171992D01*
X156888D01*
X154137Y169241D01*
Y163739D01*
X156888Y160989D01*
X159639D01*
Y171992D01*
X165140Y155487D02*
Y149985D01*
Y152736D01*
X148635D01*
Y155487D01*
M02*
