G04*
G04 #@! TF.GenerationSoftware,Altium Limited,Altium Designer,24.1.2 (44)*
G04*
G04 Layer_Color=8388736*
%FSLAX44Y44*%
%MOMM*%
G71*
G04*
G04 #@! TF.SameCoordinates,89316901-82C1-47DA-9B1A-9EFE6001FB66*
G04*
G04*
G04 #@! TF.FilePolarity,Negative*
G04*
G01*
G75*
%ADD32R,1.6002X1.4732*%
%ADD33R,1.4786X1.2341*%
%ADD34R,0.6016X1.2016*%
%ADD35R,0.4016X1.2016*%
%ADD36R,0.8016X1.3516*%
%ADD37R,1.0816X2.5716*%
%ADD38R,3.7016X2.5716*%
%ADD39R,0.9416X2.0216*%
%ADD40R,1.1032X0.4572*%
%ADD41R,0.4572X1.1032*%
%ADD42R,3.3032X3.3032*%
%ADD43R,2.2016X1.0516*%
%ADD44R,1.0516X2.2016*%
%ADD45R,1.0016X1.0016*%
%ADD46R,1.4732X1.6002*%
%ADD47R,1.7018X1.7018*%
%ADD48R,1.1736X0.6336*%
%ADD49O,1.1016X1.9016*%
%ADD50O,1.1016X2.1016*%
%ADD51C,0.8532*%
%ADD52C,1.8032*%
%ADD53R,1.8032X1.8032*%
%ADD54C,1.7016*%
%ADD55R,1.7016X1.7016*%
D32*
X252730Y111760D02*
D03*
Y134620D02*
D03*
X182753Y111760D02*
D03*
Y134620D02*
D03*
X60198Y111760D02*
D03*
Y134620D02*
D03*
X265430Y288290D02*
D03*
Y311150D02*
D03*
X136525Y134620D02*
D03*
Y111760D02*
D03*
X229235D02*
D03*
Y134620D02*
D03*
X206248D02*
D03*
Y111760D02*
D03*
X111760Y274320D02*
D03*
Y251460D02*
D03*
X90170Y274320D02*
D03*
Y251460D02*
D03*
X83439Y134620D02*
D03*
Y111760D02*
D03*
X159512Y134620D02*
D03*
Y111760D02*
D03*
X222250Y288290D02*
D03*
Y311150D02*
D03*
X243840Y288290D02*
D03*
Y311150D02*
D03*
D33*
X109094Y113125D02*
D03*
Y132451D02*
D03*
D34*
X120654Y62444D02*
D03*
X128654D02*
D03*
X176654Y62444D02*
D03*
X184654Y62444D02*
D03*
D35*
X135153Y62453D02*
D03*
X140155Y62443D02*
D03*
X145153Y62444D02*
D03*
X150155Y62443D02*
D03*
X155153Y62444D02*
D03*
X160155Y62443D02*
D03*
X165151Y62453D02*
D03*
X170155Y62443D02*
D03*
D36*
X184150Y312260D02*
D03*
X193650Y292260D02*
D03*
X174650D02*
D03*
X140360D02*
D03*
X159360D02*
D03*
X149860Y312260D02*
D03*
D37*
X102730Y167230D02*
D03*
X125730D02*
D03*
X148730D02*
D03*
D38*
X125730Y223930D02*
D03*
D39*
X240030Y90170D02*
D03*
Y13970D02*
D03*
X68072Y14224D02*
D03*
Y90424D02*
D03*
D40*
X225560Y201690D02*
D03*
Y196690D02*
D03*
Y191690D02*
D03*
Y186690D02*
D03*
Y181690D02*
D03*
Y176690D02*
D03*
Y171690D02*
D03*
X277360D02*
D03*
Y176690D02*
D03*
Y181690D02*
D03*
Y186690D02*
D03*
Y191690D02*
D03*
Y196690D02*
D03*
Y201690D02*
D03*
D41*
X236460Y160790D02*
D03*
X241460D02*
D03*
X246460D02*
D03*
X251460D02*
D03*
X256460D02*
D03*
X261460D02*
D03*
X266460D02*
D03*
Y212590D02*
D03*
X261460D02*
D03*
X256460D02*
D03*
X251460D02*
D03*
X246460D02*
D03*
X241460D02*
D03*
X236460D02*
D03*
D42*
X251460Y186690D02*
D03*
D43*
X67239Y517470D02*
D03*
Y504770D02*
D03*
Y492070D02*
D03*
Y479370D02*
D03*
Y466670D02*
D03*
Y453970D02*
D03*
Y441270D02*
D03*
Y428570D02*
D03*
Y415870D02*
D03*
Y403170D02*
D03*
Y390470D02*
D03*
Y377770D02*
D03*
Y365070D02*
D03*
Y352370D02*
D03*
X247241Y352372D02*
D03*
Y365072D02*
D03*
Y377772D02*
D03*
Y390472D02*
D03*
Y403172D02*
D03*
Y415872D02*
D03*
Y428572D02*
D03*
Y441272D02*
D03*
Y453972D02*
D03*
Y466672D02*
D03*
Y479372D02*
D03*
Y492072D02*
D03*
Y504772D02*
D03*
Y517472D02*
D03*
D44*
X100092Y337422D02*
D03*
X112792D02*
D03*
X125492D02*
D03*
X138192D02*
D03*
X150892D02*
D03*
X163592D02*
D03*
X176292D02*
D03*
X188992D02*
D03*
X201692D02*
D03*
X214392D02*
D03*
D45*
X142239Y440661D02*
D03*
X128242Y440662D02*
D03*
X156241D02*
D03*
Y454660D02*
D03*
X142240D02*
D03*
X128242D02*
D03*
Y426661D02*
D03*
X142240D02*
D03*
X156241D02*
D03*
D46*
X191770Y87630D02*
D03*
X168910D02*
D03*
X118110D02*
D03*
X140970D02*
D03*
X88900Y294640D02*
D03*
X111760D02*
D03*
X88900Y312420D02*
D03*
X111760D02*
D03*
X234950Y260350D02*
D03*
X257810D02*
D03*
X234950Y236220D02*
D03*
X257810D02*
D03*
X176530Y270510D02*
D03*
X199390D02*
D03*
Y227330D02*
D03*
X176530D02*
D03*
X199390Y247650D02*
D03*
X176530D02*
D03*
X158750Y270510D02*
D03*
X135890D02*
D03*
X177800Y163830D02*
D03*
X200660D02*
D03*
X66040Y320040D02*
D03*
X43180D02*
D03*
X66040Y276860D02*
D03*
X43180D02*
D03*
X66040Y297180D02*
D03*
X43180D02*
D03*
D47*
X74706Y165608D02*
D03*
X46715D02*
D03*
D48*
X177740Y203810D02*
D03*
Y194310D02*
D03*
Y184810D02*
D03*
X200720D02*
D03*
Y194310D02*
D03*
Y203810D02*
D03*
D49*
X109454Y14941D02*
D03*
X195854D02*
D03*
D50*
Y56942D02*
D03*
X109454Y56940D02*
D03*
D51*
X123754Y51941D02*
D03*
X181554D02*
D03*
D52*
X48260Y195580D02*
D03*
Y220980D02*
D03*
D53*
Y246380D02*
D03*
D54*
X298450Y83820D02*
D03*
Y109220D02*
D03*
Y134620D02*
D03*
Y160020D02*
D03*
Y185420D02*
D03*
Y210820D02*
D03*
Y236220D02*
D03*
Y261620D02*
D03*
Y287020D02*
D03*
Y312420D02*
D03*
Y337820D02*
D03*
Y363220D02*
D03*
Y388620D02*
D03*
Y414020D02*
D03*
Y439420D02*
D03*
Y464820D02*
D03*
X12700Y85090D02*
D03*
Y110490D02*
D03*
Y135890D02*
D03*
Y161290D02*
D03*
Y186690D02*
D03*
Y212090D02*
D03*
Y237490D02*
D03*
Y262890D02*
D03*
Y288290D02*
D03*
Y313690D02*
D03*
Y339090D02*
D03*
Y364490D02*
D03*
Y389890D02*
D03*
Y415290D02*
D03*
Y440690D02*
D03*
Y466090D02*
D03*
D55*
X298450Y490220D02*
D03*
X12700Y491490D02*
D03*
M02*
