G04*
G04 #@! TF.GenerationSoftware,Altium Limited,Altium Designer,24.1.2 (44)*
G04*
G04 Layer_Physical_Order=1*
G04 Layer_Color=255*
%FSLAX44Y44*%
%MOMM*%
G71*
G04*
G04 #@! TF.SameCoordinates,89316901-82C1-47DA-9B1A-9EFE6001FB66*
G04*
G04*
G04 #@! TF.FilePolarity,Positive*
G04*
G01*
G75*
%ADD11C,0.3000*%
%ADD13C,0.2540*%
%ADD19R,1.3970X1.2700*%
%ADD20R,0.7000X1.2500*%
%ADD21R,0.9800X2.4700*%
%ADD22R,3.6000X2.4700*%
%ADD23R,0.8400X1.9200*%
%ADD24R,0.9000X0.2540*%
%ADD25R,0.2540X0.9000*%
%ADD26R,2.1000X0.9500*%
%ADD27R,0.9500X2.1000*%
%ADD28R,0.9000X0.9000*%
%ADD29R,1.2700X1.3970*%
%ADD30R,1.6002X1.6002*%
%ADD31R,1.0720X0.5320*%
%ADD56R,1.3770X1.1325*%
%ADD57R,0.5000X1.1000*%
%ADD58R,0.3000X1.1000*%
%ADD59R,3.1000X3.1000*%
%ADD60C,0.3500*%
%ADD61C,0.6500*%
%ADD62C,0.4000*%
%ADD63C,0.5000*%
%ADD64C,0.3048*%
%ADD65O,1.0000X1.8000*%
%ADD66O,1.0000X2.0000*%
%ADD67C,0.6500*%
%ADD68C,1.6000*%
%ADD69R,1.6000X1.6000*%
%ADD70C,1.6000*%
%ADD71R,1.6000X1.6000*%
%ADD72C,0.7500*%
%ADD73C,0.6000*%
%ADD74C,0.7000*%
D11*
X177800Y163830D02*
Y164465D01*
X220284Y186920D02*
X225330D01*
X213570Y193634D02*
X220284Y186920D01*
X213570Y193634D02*
Y193757D01*
X207333Y199994D02*
X213570Y193757D01*
X225330Y186920D02*
X225560Y186690D01*
X207236Y199994D02*
X207333D01*
X203420Y203810D02*
X207236Y199994D01*
X200720Y203810D02*
X203420D01*
X215243Y181690D02*
X225560D01*
X200720Y184810D02*
X212123D01*
X215243Y181690D01*
D13*
X200660Y164465D02*
X207885Y171690D01*
X225560D01*
X231676Y168084D02*
X238887D01*
X231217Y167626D02*
X231676Y168084D01*
X228426Y167626D02*
X231217D01*
X238887Y168084D02*
X241460Y165511D01*
X225560Y171690D02*
Y176690D01*
X214852Y154051D02*
X228426Y167626D01*
X187579Y154051D02*
X214852D01*
X241460Y160790D02*
Y165511D01*
X185884Y58214D02*
X194582D01*
X184654Y59444D02*
X185884Y58214D01*
X194582D02*
X195854Y56942D01*
X184654Y59444D02*
Y62444D01*
X119424Y58214D02*
X120654Y59444D01*
X109454Y56940D02*
X110728Y58214D01*
X119424D01*
X120654Y59444D02*
Y62444D01*
X230282Y191690D02*
X246460D01*
X214884Y205232D02*
X215406Y205754D01*
X231217D01*
X232854Y204117D01*
X230282Y191690D02*
X232854Y194263D01*
Y204117D01*
X225560Y191690D02*
X230282D01*
X246460D02*
X251460Y186690D01*
X238539Y221836D02*
X241935D01*
X234950Y225425D02*
Y236220D01*
Y225425D02*
X238539Y221836D01*
X241935D02*
X246460Y217311D01*
Y212590D02*
Y217311D01*
X272542Y208951D02*
Y222504D01*
X254033Y205296D02*
X268888D01*
X251460Y207869D02*
X254033Y205296D01*
X251460Y207869D02*
Y212590D01*
X268888Y205296D02*
X272542Y208951D01*
X183515Y158115D02*
X187579Y154051D01*
X182880Y158115D02*
X183515D01*
X177800Y163195D02*
X182880Y158115D01*
X177800Y163195D02*
Y163830D01*
X182753Y134620D02*
X183034D01*
X188114Y139700D01*
Y142902D02*
X190366Y145154D01*
X188114Y139700D02*
Y142902D01*
X190366Y145154D02*
X211702D01*
X224108Y157560D01*
X236460D01*
Y160790D01*
D19*
X252730Y111760D02*
D03*
Y134620D02*
D03*
X182753Y111760D02*
D03*
Y134620D02*
D03*
X60198Y111760D02*
D03*
Y134620D02*
D03*
X265430Y288290D02*
D03*
Y311150D02*
D03*
X136525Y134620D02*
D03*
Y111760D02*
D03*
X229235D02*
D03*
Y134620D02*
D03*
X206248D02*
D03*
Y111760D02*
D03*
X111760Y274320D02*
D03*
Y251460D02*
D03*
X90170Y274320D02*
D03*
Y251460D02*
D03*
X83439Y134620D02*
D03*
Y111760D02*
D03*
X159512Y134620D02*
D03*
Y111760D02*
D03*
X222250Y288290D02*
D03*
Y311150D02*
D03*
X243840Y288290D02*
D03*
Y311150D02*
D03*
D20*
X184150Y312260D02*
D03*
X193650Y292260D02*
D03*
X174650D02*
D03*
X140360D02*
D03*
X159360D02*
D03*
X149860Y312260D02*
D03*
D21*
X102730Y167230D02*
D03*
X125730D02*
D03*
X148730D02*
D03*
D22*
X125730Y223930D02*
D03*
D23*
X240030Y90170D02*
D03*
Y13970D02*
D03*
X68072Y14224D02*
D03*
Y90424D02*
D03*
D24*
X225560Y201690D02*
D03*
Y196690D02*
D03*
Y191690D02*
D03*
Y186690D02*
D03*
Y181690D02*
D03*
Y176690D02*
D03*
Y171690D02*
D03*
X277360D02*
D03*
Y176690D02*
D03*
Y181690D02*
D03*
Y186690D02*
D03*
Y191690D02*
D03*
Y196690D02*
D03*
Y201690D02*
D03*
D25*
X236460Y160790D02*
D03*
X241460D02*
D03*
X246460D02*
D03*
X251460D02*
D03*
X256460D02*
D03*
X261460D02*
D03*
X266460D02*
D03*
Y212590D02*
D03*
X261460D02*
D03*
X256460D02*
D03*
X251460D02*
D03*
X246460D02*
D03*
X241460D02*
D03*
X236460D02*
D03*
D26*
X67239Y517470D02*
D03*
Y504770D02*
D03*
Y492070D02*
D03*
Y479370D02*
D03*
Y466670D02*
D03*
Y453970D02*
D03*
Y441270D02*
D03*
Y428570D02*
D03*
Y415870D02*
D03*
Y403170D02*
D03*
Y390470D02*
D03*
Y377770D02*
D03*
Y365070D02*
D03*
Y352370D02*
D03*
X247241Y352372D02*
D03*
Y365072D02*
D03*
Y377772D02*
D03*
Y390472D02*
D03*
Y403172D02*
D03*
Y415872D02*
D03*
Y428572D02*
D03*
Y441272D02*
D03*
Y453972D02*
D03*
Y466672D02*
D03*
Y479372D02*
D03*
Y492072D02*
D03*
Y504772D02*
D03*
Y517472D02*
D03*
D27*
X100092Y337422D02*
D03*
X112792D02*
D03*
X125492D02*
D03*
X138192D02*
D03*
X150892D02*
D03*
X163592D02*
D03*
X176292D02*
D03*
X188992D02*
D03*
X201692D02*
D03*
X214392D02*
D03*
D28*
X142239Y440661D02*
D03*
X128242Y440662D02*
D03*
X156241D02*
D03*
Y454660D02*
D03*
X142240D02*
D03*
X128242D02*
D03*
Y426661D02*
D03*
X142240D02*
D03*
X156241D02*
D03*
D29*
X191770Y87630D02*
D03*
X168910D02*
D03*
X118110D02*
D03*
X140970D02*
D03*
X88900Y294640D02*
D03*
X111760D02*
D03*
X88900Y312420D02*
D03*
X111760D02*
D03*
X234950Y260350D02*
D03*
X257810D02*
D03*
X234950Y236220D02*
D03*
X257810D02*
D03*
X176530Y270510D02*
D03*
X199390D02*
D03*
Y227330D02*
D03*
X176530D02*
D03*
X199390Y247650D02*
D03*
X176530D02*
D03*
X158750Y270510D02*
D03*
X135890D02*
D03*
X177800Y163830D02*
D03*
X200660D02*
D03*
X66040Y320040D02*
D03*
X43180D02*
D03*
X66040Y276860D02*
D03*
X43180D02*
D03*
X66040Y297180D02*
D03*
X43180D02*
D03*
D30*
X74706Y165608D02*
D03*
X46715D02*
D03*
D31*
X177740Y203810D02*
D03*
Y194310D02*
D03*
Y184810D02*
D03*
X200720D02*
D03*
Y194310D02*
D03*
Y203810D02*
D03*
D56*
X109094Y113125D02*
D03*
Y132451D02*
D03*
D57*
X120654Y62444D02*
D03*
X128654D02*
D03*
X176654Y62444D02*
D03*
X184654Y62444D02*
D03*
D58*
X135153Y62453D02*
D03*
X140155Y62443D02*
D03*
X145153Y62444D02*
D03*
X150155Y62443D02*
D03*
X155153Y62444D02*
D03*
X160155Y62443D02*
D03*
X165151Y62453D02*
D03*
X170155Y62443D02*
D03*
D59*
X251460Y186690D02*
D03*
D60*
X159360Y292260D02*
Y295011D01*
X161110Y296761D02*
X163665D01*
X168910Y302006D02*
X181610D01*
X159360Y295011D02*
X161110Y296761D01*
X163665D02*
X168910Y302006D01*
X248158Y225806D02*
Y244348D01*
Y225806D02*
X252650D01*
X242570Y249936D02*
X248158Y244348D01*
X256460Y212590D02*
Y221996D01*
X252650Y225806D02*
X256460Y221996D01*
X260955Y415872D02*
X264077Y412750D01*
X264160D01*
X223767Y415872D02*
X260955D01*
X251460Y152146D02*
X253746Y149860D01*
X273050D01*
X251460Y152146D02*
Y160790D01*
X105182Y136363D02*
X109094Y132451D01*
X103228Y136363D02*
X105182D01*
X93541Y146050D02*
X103228Y136363D01*
X74706Y165608D02*
X93541Y146773D01*
Y146050D02*
Y146773D01*
X281940Y405130D02*
X298450Y388620D01*
X210171Y54911D02*
X240030Y84770D01*
X182283Y26670D02*
X210171Y54557D01*
X240030Y84770D02*
Y95504D01*
X210171Y54557D02*
Y54911D01*
X155956Y26670D02*
X182283D01*
X149860Y312260D02*
Y320548D01*
X128270D02*
X149860D01*
X130302Y35070D02*
Y57788D01*
X132352Y33020D02*
X172956D01*
X130302Y35070D02*
X132352Y33020D01*
X175006Y35070D02*
Y60452D01*
X172956Y33020D02*
X175006Y35070D01*
X160155Y46855D02*
Y52578D01*
X211582Y226314D02*
X225298Y212598D01*
X200267Y272022D02*
X211582Y260706D01*
Y226314D02*
Y260706D01*
X193650Y278638D02*
X200267Y272022D01*
X225298Y212598D02*
X236460D01*
X211392Y334422D02*
X214392Y337422D01*
X209198Y319749D02*
X211392Y321943D01*
X209198Y319073D02*
Y319749D01*
X211392Y321943D02*
Y334422D01*
X159512Y111760D02*
X164112Y116360D01*
X177518Y126561D02*
Y130020D01*
X164112Y116360D02*
X167317D01*
X177518Y126561D01*
X286512Y148082D02*
X298450Y160020D01*
X286512Y101600D02*
Y148082D01*
X182118Y134620D02*
X182753D01*
X159766Y177884D02*
X163604Y174046D01*
X177518Y130020D02*
X182118Y134620D01*
X163714Y151717D02*
X164193Y151239D01*
X163604Y153595D02*
Y174046D01*
X163714Y151717D02*
Y153485D01*
X163604Y153595D02*
X163714Y153485D01*
X159766Y198628D02*
X164948Y203810D01*
X159766Y177884D02*
Y198628D01*
X164948Y203810D02*
X177740D01*
X168910Y75413D02*
Y87630D01*
X170155Y62443D02*
Y74168D01*
X168910Y75413D02*
X170155Y74168D01*
X206474Y111760D02*
X211074Y107160D01*
Y75202D02*
Y107160D01*
X209024Y73152D02*
X211074Y75202D01*
X179454Y73152D02*
X209024D01*
X206248Y111760D02*
X206474D01*
X177404Y63194D02*
Y71102D01*
X179454Y73152D01*
X176654Y62444D02*
X177404Y63194D01*
X112657Y337557D02*
Y354449D01*
X112522Y354584D02*
X112657Y354449D01*
Y337557D02*
X112792Y337422D01*
X67239Y403170D02*
X82055D01*
X84159Y401066D01*
X84836D01*
X67239Y415870D02*
X67276Y415834D01*
X85054D02*
X85090Y415798D01*
X67276Y415834D02*
X85054D01*
X184150Y312166D02*
Y312260D01*
Y309626D02*
Y312166D01*
X199568D01*
X163747Y309626D02*
X184150D01*
X68072Y98552D02*
Y102108D01*
Y90424D02*
Y98552D01*
X175006Y60452D02*
X176654D01*
X108458Y77216D02*
Y113125D01*
X140360Y286766D02*
X147320D01*
X243840Y311150D02*
Y352372D01*
X222250Y308185D02*
X243840D01*
X181610Y302006D02*
X200425D01*
X251714Y252397D02*
Y260350D01*
X54610Y479370D02*
X67239D01*
X42418Y467178D02*
X54610Y479370D01*
X42418Y453898D02*
Y467178D01*
X12700Y424180D02*
X42418Y453898D01*
X12700Y415290D02*
Y424180D01*
X191770Y368300D02*
X201692Y358378D01*
Y337422D02*
Y358378D01*
X276352Y359918D02*
X298450Y337820D01*
X276352Y359918D02*
Y434225D01*
X272104Y438474D02*
X276352Y434225D01*
X272104Y438474D02*
Y449838D01*
X267970Y453972D02*
X272104Y449838D01*
X247241Y453972D02*
X267970D01*
X298450Y439420D02*
Y448466D01*
X287176Y459740D02*
X298450Y448466D01*
X287176Y459740D02*
Y490220D01*
X272624Y504772D02*
X287176Y490220D01*
X247241Y504772D02*
X272624D01*
X77906Y390470D02*
X88773Y379603D01*
X67239Y390470D02*
X77906D01*
X135890Y257048D02*
Y270510D01*
Y257048D02*
X146050Y246888D01*
X153475D01*
X164143Y236220D01*
Y213360D02*
Y236220D01*
Y213360D02*
X167759Y209745D01*
X180027D01*
X186182Y215900D01*
Y297434D01*
X181610Y302006D02*
X186182Y297434D01*
X277114Y246380D02*
Y283612D01*
X266954Y236220D02*
X277114Y246380D01*
X257810Y236220D02*
X266954D01*
X227330Y466672D02*
X247241D01*
X212090Y451432D02*
X227330Y466672D01*
X212090Y412064D02*
Y451432D01*
Y412064D02*
X226644Y397510D01*
X251714Y260350D02*
X257810D01*
X251714Y252397D02*
X254508Y249603D01*
X48260Y102108D02*
X68072D01*
X54610Y377770D02*
X67239D01*
X41026Y364186D02*
X54610Y377770D01*
X41026Y341635D02*
Y364186D01*
X29210Y329818D02*
X41026Y341635D01*
X29210Y228600D02*
Y329818D01*
X12700Y212090D02*
X29210Y228600D01*
X247241Y428572D02*
X263070D01*
X271272Y420370D01*
Y356108D02*
Y420370D01*
X255016Y339852D02*
X271272Y356108D01*
X255016Y302260D02*
Y339852D01*
Y302260D02*
X257556Y299720D01*
X285750D01*
X298450Y287020D01*
X234622Y403172D02*
X247241D01*
X232918Y404876D02*
X234622Y403172D01*
X234950Y260350D02*
Y271605D01*
X247241Y479372D02*
X267970D01*
X277128Y470214D01*
Y448310D02*
Y470214D01*
Y448310D02*
X281940Y443498D01*
Y405130D02*
Y443498D01*
X247241Y492072D02*
X275008D01*
X282152Y484928D01*
Y453390D02*
Y484928D01*
Y453390D02*
X287020Y448522D01*
Y425450D02*
Y448522D01*
Y425450D02*
X298450Y414020D01*
X100838Y312420D02*
X111760D01*
X218440Y421199D02*
X223767Y415872D01*
X230886Y390472D02*
X247241D01*
X12700Y313690D02*
Y322580D01*
X35814Y345694D01*
Y389463D01*
X39202Y392852D01*
Y414940D01*
X52832Y428570D01*
X67239D01*
X52650Y466670D02*
X67239D01*
X48006Y462026D02*
X52650Y466670D01*
X48006Y450850D02*
Y462026D01*
X24130Y426974D02*
X48006Y450850D01*
X24130Y407924D02*
Y426974D01*
X18542Y402336D02*
X24130Y407924D01*
X18542Y395732D02*
Y402336D01*
X12700Y389890D02*
X18542Y395732D01*
X55134Y441270D02*
X67239D01*
X34178Y420314D02*
X55134Y441270D01*
X34178Y401483D02*
Y420314D01*
X30571Y397876D02*
X34178Y401483D01*
X30571Y356961D02*
Y397876D01*
X12700Y339090D02*
X30571Y356961D01*
X53340Y453970D02*
X67239D01*
X53340Y446581D02*
Y453970D01*
X29154Y422395D02*
X53340Y446581D01*
X29154Y405843D02*
Y422395D01*
X24130Y400819D02*
X29154Y405843D01*
X24130Y375920D02*
Y400819D01*
X12700Y364490D02*
X24130Y375920D01*
X39370Y492070D02*
X67239D01*
X32512Y485212D02*
X39370Y492070D01*
X32512Y460502D02*
Y485212D01*
X12700Y440690D02*
X32512Y460502D01*
X108458Y113125D02*
X109094D01*
X108458Y77216D02*
X120650D01*
X128654Y69212D01*
Y62444D02*
Y69212D01*
X200425Y287020D02*
Y302006D01*
Y287020D02*
X205505Y281940D01*
X210058D01*
X225298Y266700D01*
Y249936D02*
Y266700D01*
Y249936D02*
X242570D01*
X210566Y288290D02*
X222250D01*
X218440Y377772D02*
X247241D01*
X207010Y365072D02*
X247241D01*
X156635Y302514D02*
X163747Y309626D01*
X131572Y302514D02*
X156635D01*
X126238Y297180D02*
X131572Y302514D01*
X126238Y262128D02*
Y297180D01*
Y262128D02*
X129540Y258826D01*
Y246380D02*
Y258826D01*
X122936Y239776D02*
X129540Y246380D01*
X74930Y239776D02*
X122936D01*
X63246Y228092D02*
X74930Y239776D01*
X63246Y156210D02*
Y228092D01*
Y156210D02*
X70612Y148844D01*
Y101092D02*
Y148844D01*
X68072Y98552D02*
X70612Y101092D01*
X111760Y274320D02*
Y284226D01*
X91694D02*
X111760D01*
X88900Y287020D02*
X91694Y284226D01*
X88900Y287020D02*
Y294640D01*
X199568Y312166D02*
X210236Y301498D01*
X237490D01*
X243840Y295148D01*
Y288290D02*
Y295148D01*
X176654Y60452D02*
Y62444D01*
X128654Y59436D02*
X130302Y57788D01*
X128654Y59436D02*
Y62444D01*
X140970Y75237D02*
Y87630D01*
X140155Y74422D02*
X140970Y75237D01*
X140155Y62443D02*
Y74422D01*
X222250Y308185D02*
Y311150D01*
X243840Y308185D02*
Y311150D01*
X67239Y352370D02*
X83312D01*
X243840Y352372D02*
X247241D01*
X193650Y278638D02*
Y292260D01*
X236460Y212590D02*
Y212598D01*
X52832Y365070D02*
X67239D01*
X52832Y339272D02*
Y365070D01*
Y339272D02*
X54534Y337570D01*
Y267894D02*
Y337570D01*
X44450Y257810D02*
X54534Y267894D01*
X36929Y257810D02*
X44450D01*
X36929Y210919D02*
Y257810D01*
X12700Y186690D02*
X36929Y210919D01*
X140360Y286766D02*
Y292260D01*
X147320Y263906D02*
Y286766D01*
Y263906D02*
X151130Y260096D01*
X173990D01*
X176530Y262636D01*
Y270510D01*
X158750D02*
Y278384D01*
X161290Y280924D01*
X166014D01*
X174650Y289560D01*
Y292260D01*
X81788Y274320D02*
X90170D01*
X79248Y276860D02*
X81788Y274320D01*
X79248Y276860D02*
Y309880D01*
X81788Y312420D01*
X88900D01*
X150155Y52578D02*
Y62443D01*
Y52578D02*
X160155D01*
Y62443D01*
X229235Y106299D02*
Y111760D01*
Y106299D02*
X240030Y95504D01*
X229235Y111760D02*
X252730D01*
D61*
X28448Y157368D02*
X51196Y134620D01*
X60198D01*
X189992Y194310D02*
X200720D01*
X124766Y122884D02*
Y142947D01*
Y122884D02*
X135890Y111760D01*
X124766Y142947D02*
X127563Y145744D01*
X134184D01*
X135890Y111760D02*
X136525D01*
X134184Y145744D02*
X138300Y149860D01*
X138570D01*
X155777Y137720D02*
X158877Y134620D01*
X155777Y137720D02*
Y147228D01*
X155448Y147557D02*
Y147828D01*
X158877Y134620D02*
X159512D01*
X155448Y147557D02*
X155777Y147228D01*
X46715Y165608D02*
X51466Y160857D01*
Y151750D02*
Y160857D01*
X53086Y149860D02*
Y150131D01*
X51466Y151750D02*
X53086Y150131D01*
X148730Y160020D02*
Y167230D01*
X138570Y149860D02*
X148730Y160020D01*
X102616Y223930D02*
X125730D01*
X99666Y220980D02*
X102616Y223930D01*
X148730Y167230D02*
Y221250D01*
X146050Y223930D02*
X148730Y221250D01*
X125730Y223930D02*
X146050D01*
D62*
X252730Y134620D02*
X254178Y133172D01*
X265430D01*
X102800Y151200D02*
Y167160D01*
Y151200D02*
X102870Y151130D01*
X102730Y167230D02*
X102800Y167160D01*
X182753Y111760D02*
X183388D01*
X247241Y517472D02*
X265323D01*
X269715Y513080D01*
X270256D01*
X52904Y517470D02*
X67239D01*
X46482Y511048D02*
X52904Y517470D01*
X128242Y440661D02*
X142238D01*
X128242Y440662D02*
X128242Y440661D01*
X142238D02*
X142239Y440661D01*
X128242Y426661D02*
Y440662D01*
Y426661D02*
X142240D01*
X156241D01*
X156241Y426661D02*
Y440661D01*
X156241Y426661D02*
X156241Y426661D01*
Y440661D02*
X156241Y440662D01*
Y454660D01*
X278558Y292274D02*
X278892Y292608D01*
X276685Y292274D02*
X278558D01*
X229108Y134493D02*
X229235Y134620D01*
X168239Y186919D02*
Y188312D01*
X167856Y186536D02*
X168239Y186919D01*
X171724Y190994D02*
X175040Y194310D01*
X177740D01*
X168239Y188312D02*
X170920Y190994D01*
X171724D01*
X192024Y87884D02*
X203200D01*
X191770Y87630D02*
X192024Y87884D01*
X83439Y82423D02*
Y111760D01*
X76200Y75184D02*
X83439Y82423D01*
X50292Y75184D02*
X76200D01*
X39370Y86106D02*
Y107188D01*
Y86106D02*
X50292Y75184D01*
X39370Y107188D02*
X43942Y111760D01*
X60198D01*
X191770Y87630D02*
Y103378D01*
X183388Y111760D02*
X191770Y103378D01*
X201263Y130270D02*
X205613Y134620D01*
X206248D01*
X183388Y111760D02*
X201263Y129635D01*
Y130270D01*
X90170Y251460D02*
X111760D01*
X176530Y216408D02*
Y227330D01*
X99957Y337557D02*
Y353433D01*
Y337557D02*
X100092Y337422D01*
X99822Y353568D02*
X99957Y353433D01*
X43180Y276860D02*
Y297180D01*
Y265605D02*
Y276860D01*
X142240Y454660D02*
X156241D01*
X128242D02*
X142240D01*
X270590Y288290D02*
X276685Y292274D01*
X265430Y288290D02*
X270590D01*
X83439Y111760D02*
X94742D01*
X111760Y251460D02*
X123015D01*
X43180Y320040D02*
Y327660D01*
X46815Y331295D01*
X48260D01*
X128242Y454660D02*
Y463430D01*
X118110Y87630D02*
Y98885D01*
X136525Y134620D02*
X147780D01*
X240030Y13970D02*
Y27840D01*
X68072Y14224D02*
Y28094D01*
X43180Y297180D02*
Y320040D01*
D63*
X176530Y227330D02*
Y247650D01*
X199390Y215646D02*
Y227330D01*
Y215575D02*
Y215646D01*
Y227330D02*
Y247650D01*
X125476Y186081D02*
X125603Y185954D01*
Y167357D02*
X125730Y167230D01*
X125603Y167357D02*
Y185954D01*
X86509Y504770D02*
X87343Y503936D01*
X87884D01*
X67239Y504770D02*
X86509D01*
X101262Y294640D02*
X111760D01*
X66040Y265176D02*
Y276860D01*
X229108Y123444D02*
Y134493D01*
X189613Y175512D02*
Y184275D01*
Y175512D02*
X200660Y164465D01*
X189230Y184658D02*
X189613Y184275D01*
X66040Y276860D02*
Y297180D01*
X265430Y311150D02*
X277185D01*
X66040Y320040D02*
Y341884D01*
X83439Y134620D02*
X95250D01*
X66040Y297180D02*
Y320040D01*
D64*
X175366Y183674D02*
X176502Y184810D01*
X177740D01*
X175366Y179042D02*
Y183674D01*
X149479Y96901D02*
X152027Y94354D01*
X155329Y125222D02*
X167759D01*
X170241Y127703D02*
Y153744D01*
X168402Y155583D02*
Y172078D01*
Y155583D02*
X170241Y153744D01*
X152027Y71882D02*
Y94354D01*
X149479Y96901D02*
Y119373D01*
X155329Y125222D01*
X168402Y172078D02*
X175366Y179042D01*
X167759Y125222D02*
X170241Y127703D01*
X155129Y62468D02*
X155153Y62444D01*
X155129Y62468D02*
Y68779D01*
X145153Y62444D02*
Y70097D01*
X152027Y71882D02*
X155129Y68779D01*
X146939Y71882D02*
X152027D01*
X145153Y70097D02*
X146939Y71882D01*
D65*
X109454Y14941D02*
D03*
X195854D02*
D03*
D66*
Y56942D02*
D03*
X109454Y56940D02*
D03*
D67*
X123754Y51941D02*
D03*
X181554D02*
D03*
D68*
X48260Y195580D02*
D03*
Y220980D02*
D03*
D69*
Y246380D02*
D03*
D70*
X298450Y83820D02*
D03*
Y109220D02*
D03*
Y134620D02*
D03*
Y160020D02*
D03*
Y185420D02*
D03*
Y210820D02*
D03*
Y236220D02*
D03*
Y261620D02*
D03*
Y287020D02*
D03*
Y312420D02*
D03*
Y337820D02*
D03*
Y363220D02*
D03*
Y388620D02*
D03*
Y414020D02*
D03*
Y439420D02*
D03*
Y464820D02*
D03*
X12700Y85090D02*
D03*
Y110490D02*
D03*
Y135890D02*
D03*
Y161290D02*
D03*
Y186690D02*
D03*
Y212090D02*
D03*
Y237490D02*
D03*
Y262890D02*
D03*
Y288290D02*
D03*
Y313690D02*
D03*
Y339090D02*
D03*
Y364490D02*
D03*
Y389890D02*
D03*
Y415290D02*
D03*
Y440690D02*
D03*
Y466090D02*
D03*
D71*
X298450Y490220D02*
D03*
X12700Y491490D02*
D03*
D72*
X28448Y157368D02*
D03*
X189992Y194310D02*
D03*
X155448Y147828D02*
D03*
X53086Y149860D02*
D03*
X138570D02*
D03*
X99666Y220980D02*
D03*
D73*
X264160Y412750D02*
D03*
X265430Y133172D02*
D03*
X273050Y149860D02*
D03*
X102870Y151130D02*
D03*
X155956Y26670D02*
D03*
X128270Y320548D02*
D03*
X160155Y46855D02*
D03*
X272542Y222504D02*
D03*
X270256Y513080D02*
D03*
X46482Y511048D02*
D03*
X209198Y319073D02*
D03*
X278892Y292608D02*
D03*
X286512Y101600D02*
D03*
X167856Y186536D02*
D03*
X214884Y205232D02*
D03*
X164193Y151239D02*
D03*
X203200Y87884D02*
D03*
X176530Y216408D02*
D03*
X99822Y353568D02*
D03*
X112522Y354584D02*
D03*
X84836Y401066D02*
D03*
X85090Y415798D02*
D03*
X94742Y111760D02*
D03*
X191770Y368300D02*
D03*
X88773Y379603D02*
D03*
X277114Y283612D02*
D03*
X226644Y397510D02*
D03*
X254508Y249603D02*
D03*
X48260Y102108D02*
D03*
X232918Y404876D02*
D03*
X234950Y271605D02*
D03*
X123015Y251460D02*
D03*
X43180Y265605D02*
D03*
X48260Y331295D02*
D03*
X128242Y463430D02*
D03*
X100838Y312420D02*
D03*
X218440Y421199D02*
D03*
X230886Y390472D02*
D03*
X210566Y288290D02*
D03*
X218440Y377772D02*
D03*
X207010Y365072D02*
D03*
X118110Y98885D02*
D03*
X147780Y134620D02*
D03*
X83312Y352370D02*
D03*
X36576Y137160D02*
D03*
X240030Y27840D02*
D03*
X68072Y28094D02*
D03*
D74*
X199390Y215646D02*
D03*
X125476Y186081D02*
D03*
X87884Y503936D02*
D03*
X101262Y294640D02*
D03*
X66040Y265176D02*
D03*
X229108Y123444D02*
D03*
X189230Y184658D02*
D03*
X277185Y311150D02*
D03*
X66040Y341884D02*
D03*
X95250Y134620D02*
D03*
M02*
