G04*
G04 #@! TF.GenerationSoftware,Altium Limited,Altium Designer,24.1.2 (44)*
G04*
G04 Layer_Physical_Order=3*
G04 Layer_Color=16440176*
%FSLAX44Y44*%
%MOMM*%
G71*
G04*
G04 #@! TF.SameCoordinates,89316901-82C1-47DA-9B1A-9EFE6001FB66*
G04*
G04*
G04 #@! TF.FilePolarity,Positive*
G04*
G01*
G75*
%ADD61C,0.6500*%
%ADD63C,0.5000*%
%ADD65O,1.0000X1.8000*%
%ADD66O,1.0000X2.0000*%
%ADD67C,0.6500*%
%ADD68C,1.6000*%
%ADD69R,1.6000X1.6000*%
%ADD70C,1.6000*%
%ADD71R,1.6000X1.6000*%
%ADD72C,0.7500*%
%ADD73C,0.6000*%
%ADD74C,0.7000*%
D61*
X28448Y100838D02*
Y157368D01*
X12700Y85090D02*
X28448Y100838D01*
Y157368D02*
Y226568D01*
X126336Y194310D02*
X189992D01*
X99666Y220980D02*
X126336Y194310D01*
X149803Y147637D02*
X154986D01*
X155177Y147828D01*
X126726Y124560D02*
X149803Y147637D01*
X93609Y124560D02*
X126726D01*
X68309Y149860D02*
X93609Y124560D01*
X53086Y149860D02*
X68309D01*
X52895Y150051D02*
Y150830D01*
X48260Y155465D02*
X52895Y150830D01*
Y150051D02*
X53086Y149860D01*
X48260Y155465D02*
Y195580D01*
X28448Y226568D02*
X48260Y246380D01*
Y220980D02*
X99666D01*
D63*
X277114Y311150D02*
Y468884D01*
X125638Y186460D02*
X126400Y185698D01*
X125476Y186081D02*
Y186843D01*
Y151130D02*
Y186081D01*
X183374Y209384D02*
X189636Y215646D01*
X199390D01*
Y192714D02*
Y215646D01*
X126976Y185698D02*
X144556Y168118D01*
X126400Y185698D02*
X126976D01*
X125476Y186843D02*
X125638Y187005D01*
Y186460D02*
Y187005D01*
X108966Y134620D02*
X125476Y151130D01*
X144556Y168118D02*
X159372D01*
X175911Y184658D01*
X292950Y489814D02*
X298450Y490220D01*
X66040Y341884D02*
X72060Y347904D01*
Y488112D02*
X87884Y503936D01*
X72060Y347904D02*
Y488112D01*
X50546Y503936D02*
X87884D01*
X72060Y488112D02*
X292950Y489814D01*
X12700Y466090D02*
X50546Y503936D01*
X66040Y265176D02*
X66464D01*
X122256Y209384D01*
X183374D01*
X66040Y265176D02*
X95121Y294257D01*
X100879D01*
X101262Y294640D01*
X189230Y184658D02*
X229108Y144780D01*
Y123444D02*
Y144780D01*
X95250Y134620D02*
X108966D01*
X175911Y184658D02*
X189230D01*
X189613Y185041D01*
X191717D01*
X199390Y192714D01*
X277114Y468884D02*
X298450Y490220D01*
D65*
X109454Y14941D02*
D03*
X195854D02*
D03*
D66*
Y56942D02*
D03*
X109454Y56940D02*
D03*
D67*
X123754Y51941D02*
D03*
X181554D02*
D03*
D68*
X48260Y195580D02*
D03*
Y220980D02*
D03*
D69*
Y246380D02*
D03*
D70*
X298450Y83820D02*
D03*
Y109220D02*
D03*
Y134620D02*
D03*
Y160020D02*
D03*
Y185420D02*
D03*
Y210820D02*
D03*
Y236220D02*
D03*
Y261620D02*
D03*
Y287020D02*
D03*
Y312420D02*
D03*
Y337820D02*
D03*
Y363220D02*
D03*
Y388620D02*
D03*
Y414020D02*
D03*
Y439420D02*
D03*
Y464820D02*
D03*
X12700Y85090D02*
D03*
Y110490D02*
D03*
Y135890D02*
D03*
Y161290D02*
D03*
Y186690D02*
D03*
Y212090D02*
D03*
Y237490D02*
D03*
Y262890D02*
D03*
Y288290D02*
D03*
Y313690D02*
D03*
Y339090D02*
D03*
Y364490D02*
D03*
Y389890D02*
D03*
Y415290D02*
D03*
Y440690D02*
D03*
Y466090D02*
D03*
D71*
X298450Y490220D02*
D03*
X12700Y491490D02*
D03*
D72*
X28448Y157368D02*
D03*
X189992Y194310D02*
D03*
X155448Y147828D02*
D03*
X53086Y149860D02*
D03*
X138570D02*
D03*
X99666Y220980D02*
D03*
D73*
X264160Y412750D02*
D03*
X265430Y133172D02*
D03*
X273050Y149860D02*
D03*
X102870Y151130D02*
D03*
X155956Y26670D02*
D03*
X128270Y320548D02*
D03*
X160155Y46855D02*
D03*
X272542Y222504D02*
D03*
X270256Y513080D02*
D03*
X46482Y511048D02*
D03*
X209198Y319073D02*
D03*
X278892Y292608D02*
D03*
X286512Y101600D02*
D03*
X167856Y186536D02*
D03*
X214884Y205232D02*
D03*
X164193Y151239D02*
D03*
X203200Y87884D02*
D03*
X176530Y216408D02*
D03*
X99822Y353568D02*
D03*
X112522Y354584D02*
D03*
X84836Y401066D02*
D03*
X85090Y415798D02*
D03*
X94742Y111760D02*
D03*
X191770Y368300D02*
D03*
X88773Y379603D02*
D03*
X277114Y283612D02*
D03*
X226644Y397510D02*
D03*
X254508Y249603D02*
D03*
X48260Y102108D02*
D03*
X232918Y404876D02*
D03*
X234950Y271605D02*
D03*
X123015Y251460D02*
D03*
X43180Y265605D02*
D03*
X48260Y331295D02*
D03*
X128242Y463430D02*
D03*
X100838Y312420D02*
D03*
X218440Y421199D02*
D03*
X230886Y390472D02*
D03*
X210566Y288290D02*
D03*
X218440Y377772D02*
D03*
X207010Y365072D02*
D03*
X118110Y98885D02*
D03*
X147780Y134620D02*
D03*
X83312Y352370D02*
D03*
X36576Y137160D02*
D03*
X240030Y27840D02*
D03*
X68072Y28094D02*
D03*
D74*
X199390Y215646D02*
D03*
X125476Y186081D02*
D03*
X87884Y503936D02*
D03*
X101262Y294640D02*
D03*
X66040Y265176D02*
D03*
X229108Y123444D02*
D03*
X189230Y184658D02*
D03*
X277185Y311150D02*
D03*
X66040Y341884D02*
D03*
X95250Y134620D02*
D03*
M02*
