M48
;Layer_Color=9474304
;FILE_FORMAT=4:4
METRIC,TZ
;TYPE=PLATED
T01F00S00C0.3000
T02F00S00C0.4000
T03F00S00C0.4500
T05F00S00C1.0500
T06F00S00C1.1000
%
T01
X155956Y26670
X160155Y46855
X203200Y87884
X118110Y98885
X94742Y111760
X102870Y151130
X147780Y134620
X164193Y151239
X167856Y186536
X176530Y216408
X214884Y205232
X272542Y222504
X273050Y149860
X265430Y133172
X286512Y101600
X240030Y27840
X68072Y28094
X48260Y102108
X36576Y137160
X43180Y265605
X48260Y331295
X46482Y511048
X128242Y463430
X85090Y415798
X84836Y401066
X88773Y379603
X83312Y352370
X99822Y353568
X112522Y354584
X128270Y320548
X100838Y312420
X123015Y251460
X210566Y288290
X209198Y319073
X207010Y365072
X191770Y368300
X218440Y377772
X230886Y390472
X226644Y397510
X232918Y404876
X218440Y421199
X264160Y412750
X270256Y513080
X278892Y292608
X277114Y283612
X234950Y271605
X254508Y249603
T02
X95250Y134620
X125476Y186081
X189230Y184658
X199390Y215646
X229108Y123444
X66040Y265176
Y341884
X101262Y294640
X277185Y311150
X87884Y503936
T03
X138570Y149860
X155448Y147828
X189992Y194310
X99666Y220980
X53086Y149860
X28448Y157368
T05
X298450Y83820
Y109220
Y134620
Y160020
Y185420
Y210820
Y236220
X12700Y237490
Y212090
Y186690
Y161290
Y135890
Y110490
Y85090
Y262890
Y288290
Y313690
Y339090
Y364490
Y389890
Y415290
Y440690
Y466090
Y491490
X298450Y490220
Y464820
Y439420
Y414020
Y388620
Y363220
Y337820
Y312420
Y287020
Y261620
T06
X48260Y195580
Y220980
Y246380
M30
