G04*
G04 #@! TF.GenerationSoftware,Altium Limited,Altium Designer,24.1.2 (44)*
G04*
G04 Layer_Color=65535*
%FSLAX44Y44*%
%MOMM*%
G71*
G04*
G04 #@! TF.SameCoordinates,89316901-82C1-47DA-9B1A-9EFE6001FB66*
G04*
G04*
G04 #@! TF.FilePolarity,Positive*
G04*
G01*
G75*
%ADD10C,0.1270*%
%ADD11C,0.3000*%
%ADD12C,0.1016*%
%ADD13C,0.2540*%
%ADD14C,0.1524*%
%ADD15C,0.1520*%
%ADD16C,0.2000*%
%ADD17C,0.2286*%
%ADD18C,0.2500*%
D10*
X223960Y209190D02*
G03*
X223960Y209190I-2500J0D01*
G01*
X244094Y142748D02*
X261112D01*
Y103886D02*
Y142748D01*
X244094Y103886D02*
X261112D01*
X244094D02*
Y142748D01*
X174371Y103632D02*
X191389D01*
X174371D02*
Y142494D01*
X191389D01*
Y103632D02*
Y142494D01*
X51816Y103632D02*
X68834D01*
X51816D02*
Y142494D01*
X68834D01*
Y103632D02*
Y142494D01*
X257048Y280162D02*
X274066D01*
X257048D02*
Y319024D01*
X274066D01*
Y280162D02*
Y319024D01*
X229995Y211690D02*
X233960D01*
X226460Y208155D02*
X229995Y211690D01*
X226460Y204190D02*
Y208155D01*
X268960Y211690D02*
X276460D01*
Y204190D02*
Y211690D01*
X226460Y161690D02*
Y169190D01*
Y161690D02*
X233960D01*
X268960D02*
X276460D01*
Y169190D01*
X127889Y142748D02*
X144907D01*
Y103886D02*
Y142748D01*
X127889Y103886D02*
X144907D01*
X127889D02*
Y142748D01*
X213614Y280416D02*
Y319278D01*
Y280416D02*
X230632D01*
Y319278D01*
X213614D02*
X230632D01*
X235204Y280416D02*
Y319278D01*
Y280416D02*
X252222D01*
Y319278D01*
X235204D02*
X252222D01*
X237871Y103632D02*
Y142494D01*
X220853D02*
X237871D01*
X220853Y103632D02*
Y142494D01*
Y103632D02*
X237871D01*
X35052Y311404D02*
X73914D01*
Y328422D01*
X35052D02*
X73914D01*
X35052Y311404D02*
Y328422D01*
Y268224D02*
X73914D01*
Y285242D01*
X35052D02*
X73914D01*
X35052Y268224D02*
Y285242D01*
Y288544D02*
X73914D01*
Y305562D01*
X35052D02*
X73914D01*
X35052Y288544D02*
Y305562D01*
X168656Y279146D02*
X207518D01*
X168656Y262128D02*
Y279146D01*
Y262128D02*
X207518D01*
Y279146D01*
X197612Y103886D02*
Y142748D01*
Y103886D02*
X214630D01*
Y142748D01*
X197612D02*
X214630D01*
X109982Y78994D02*
X148844D01*
Y96012D01*
X109982D02*
X148844D01*
X109982Y78994D02*
Y96012D01*
X168402Y218694D02*
X207264D01*
Y235712D01*
X168402D02*
X207264D01*
X168402Y218694D02*
Y235712D01*
Y239014D02*
X207264D01*
Y256032D01*
X168402D02*
X207264D01*
X168402Y239014D02*
Y256032D01*
X127762Y261874D02*
X166624D01*
Y278892D01*
X127762D02*
X166624D01*
X127762Y261874D02*
Y278892D01*
X161036Y96266D02*
X199898D01*
X161036Y79248D02*
Y96266D01*
Y79248D02*
X199898D01*
Y96266D01*
X168148Y103632D02*
Y142494D01*
X151130D02*
X168148D01*
X151130Y103632D02*
Y142494D01*
Y103632D02*
X168148D01*
X169926Y172466D02*
X208788D01*
X169926Y155448D02*
Y172466D01*
Y155448D02*
X208788D01*
Y172466D01*
X92075Y103632D02*
Y142494D01*
X75057D02*
X92075D01*
X75057Y103632D02*
Y142494D01*
Y103632D02*
X92075D01*
X227076Y268986D02*
X265938D01*
X227076Y251968D02*
Y268986D01*
Y251968D02*
X265938D01*
Y268986D01*
X227076Y244856D02*
X265938D01*
X227076Y227838D02*
Y244856D01*
Y227838D02*
X265938D01*
Y244856D01*
X81026Y303276D02*
X119888D01*
X81026Y286258D02*
Y303276D01*
Y286258D02*
X119888D01*
Y303276D01*
X81026Y321056D02*
X119888D01*
X81026Y304038D02*
Y321056D01*
Y304038D02*
X119888D01*
Y321056D01*
D11*
X177716Y210993D02*
G03*
X177716Y210993I-1501J0D01*
G01*
D12*
X246380Y118872D02*
Y127508D01*
X259080Y118872D02*
Y127508D01*
X189103Y118872D02*
Y127508D01*
X176403Y118872D02*
Y127508D01*
X66548Y118872D02*
Y127508D01*
X53848Y118872D02*
Y127508D01*
X271780Y295402D02*
Y304038D01*
X259080Y295402D02*
Y304038D01*
X130175Y118872D02*
Y127508D01*
X142875Y118872D02*
Y127508D01*
X228600Y295402D02*
Y304038D01*
X215900Y295402D02*
Y304038D01*
X250190Y295402D02*
Y304038D01*
X237490Y295402D02*
Y304038D01*
X222885Y118872D02*
Y127508D01*
X235585Y118872D02*
Y127508D01*
X50292Y326390D02*
X58928D01*
X50292Y313690D02*
X58928D01*
X50292Y283210D02*
X58928D01*
X50292Y270510D02*
X58928D01*
X50292Y303530D02*
X58928D01*
X50292Y290830D02*
X58928D01*
X183642Y264160D02*
X192278D01*
X183642Y276860D02*
X192278D01*
X212598Y118872D02*
Y127508D01*
X199898Y118872D02*
Y127508D01*
X125222Y93980D02*
X133858D01*
X125222Y81280D02*
X133858D01*
X183642Y233680D02*
X192278D01*
X183642Y220980D02*
X192278D01*
X183642Y254000D02*
X192278D01*
X183642Y241300D02*
X192278D01*
X143002Y276860D02*
X151638D01*
X143002Y264160D02*
X151638D01*
X176022Y81280D02*
X184658D01*
X176022Y93980D02*
X184658D01*
X153162Y118872D02*
Y127508D01*
X165862Y118872D02*
Y127508D01*
X184912Y157480D02*
X193548D01*
X184912Y170180D02*
X193548D01*
X97790Y251460D02*
X99060D01*
Y274320D01*
X97790D02*
X99060D01*
X81280Y251460D02*
X82550D01*
X81280D02*
Y274320D01*
X82550D01*
X77089Y118872D02*
Y127508D01*
X89789Y118872D02*
Y127508D01*
X242062Y254000D02*
X250698D01*
X242062Y266700D02*
X250698D01*
X242062Y229870D02*
X250698D01*
X242062Y242570D02*
X250698D01*
X96012Y288290D02*
X104648D01*
X96012Y300990D02*
X104648D01*
X96012Y306070D02*
X104648D01*
X96012Y318770D02*
X104648D01*
X119380Y251460D02*
X120650D01*
Y274320D01*
X119380D02*
X120650D01*
X102870Y251460D02*
X104140D01*
X102870D02*
Y274320D01*
X104140D01*
D13*
X119253Y127000D02*
Y138430D01*
Y139700D01*
X116713Y142240D02*
X119253Y139700D01*
X102743Y142240D02*
X116713D01*
X101473D02*
X102743D01*
X98933Y139700D02*
X101473Y142240D01*
X98933Y127000D02*
Y139700D01*
Y107950D02*
Y119380D01*
Y106680D02*
Y107950D01*
Y106680D02*
X101473Y104140D01*
X115443D01*
X116713D01*
X119253Y106680D01*
Y119380D01*
X198374Y25802D02*
Y45080D01*
X106934Y-12019D02*
Y4079D01*
Y-12019D02*
X198374D01*
Y4079D01*
X106934Y25802D02*
Y45078D01*
X247241Y527552D02*
Y592211D01*
X67241Y527711D02*
Y592211D01*
X247241D01*
X67241Y529372D02*
X247241D01*
X247411Y524283D02*
Y529372D01*
X221203Y337211D02*
X247411D01*
Y345559D01*
X67241Y337211D02*
Y345559D01*
Y337211D02*
X93280D01*
X67241Y524283D02*
Y529372D01*
X285950Y71121D02*
X310950D01*
Y502920D01*
X285950D02*
X310950D01*
X285950Y71121D02*
Y502920D01*
Y477519D02*
X310950D01*
X200Y72390D02*
X25200D01*
Y504189D01*
X200D02*
X25200D01*
X200Y72390D02*
Y504189D01*
Y478789D02*
X25200D01*
D14*
X179596Y294998D02*
X188704D01*
X168888Y309522D02*
X179204D01*
X168888Y294998D02*
Y309522D01*
X189096D02*
X199412D01*
Y294998D02*
Y309522D01*
X92468Y209294D02*
X158992D01*
Y181866D02*
Y209294D01*
X92468Y181866D02*
X158992D01*
X92468D02*
Y209294D01*
X220768Y20808D02*
Y83332D01*
X233798D01*
X259292Y20808D02*
Y83332D01*
X246262D02*
X259292D01*
X48810Y21062D02*
Y83586D01*
X61840D01*
X87334Y21062D02*
Y83586D01*
X74304D02*
X87334D01*
X165122Y294998D02*
Y309522D01*
X154806D02*
X165122D01*
X134598Y294998D02*
Y309522D01*
X144914D01*
X145306Y294998D02*
X154414D01*
X180338Y209702D02*
X198122D01*
X180338Y178918D02*
X198122D01*
D15*
X246031Y20808D02*
X259292D01*
X220768D02*
X234028D01*
X74073Y21062D02*
X87334D01*
X48810D02*
X62070D01*
D16*
X35560Y233680D02*
X60960D01*
X35560Y259080D02*
X60960D01*
Y182880D02*
Y259080D01*
X35560Y182880D02*
X60960D01*
X35560D02*
Y259080D01*
D17*
X85706Y154608D02*
Y176608D01*
X35706D02*
X85706D01*
X35706Y154608D02*
Y176608D01*
Y154608D02*
X85706D01*
D18*
X34333Y38060D02*
X43220D01*
Y42503D01*
X41739Y43985D01*
X40258D01*
X38777Y42503D01*
Y38060D01*
Y42503D01*
X37295Y43985D01*
X35814D01*
X34333Y42503D01*
Y38060D01*
Y51391D02*
Y48428D01*
X35814Y46947D01*
X41739D01*
X43220Y48428D01*
Y51391D01*
X41739Y52872D01*
X35814D01*
X34333Y51391D01*
Y60278D02*
Y57315D01*
X35814Y55834D01*
X41739D01*
X43220Y57315D01*
Y60278D01*
X41739Y61759D01*
X35814D01*
X34333Y60278D01*
Y64721D02*
Y70646D01*
Y67684D01*
X43220D01*
X267930Y62270D02*
X276817D01*
Y57826D01*
X275336Y56345D01*
X272374D01*
X270892Y57826D01*
Y62270D01*
Y59308D02*
X267930Y56345D01*
X275336Y47458D02*
X276817Y48939D01*
Y51902D01*
X275336Y53383D01*
X273855D01*
X272374Y51902D01*
Y48939D01*
X270892Y47458D01*
X269411D01*
X267930Y48939D01*
Y51902D01*
X269411Y53383D01*
X276817Y44496D02*
Y38571D01*
Y41533D01*
X267930D01*
X71160Y219670D02*
Y223055D01*
X66083Y241258D02*
Y236180D01*
X73700D01*
Y241258D01*
X69891Y236180D02*
Y238719D01*
X66083Y243797D02*
X73700Y248876D01*
X66083D02*
X73700Y243797D01*
X66083Y251415D02*
Y256493D01*
Y253954D01*
X73700D01*
X67352Y185380D02*
X73700D01*
X74970Y186650D01*
Y189189D01*
X73700Y190458D01*
X67352D01*
X68622Y198076D02*
X67352Y196806D01*
Y194267D01*
X68622Y192997D01*
X69892D01*
X71161Y194267D01*
Y196806D01*
X72431Y198076D01*
X73700D01*
X74970Y196806D01*
Y194267D01*
X73700Y192997D01*
X67352Y200615D02*
X74970D01*
Y204424D01*
X73700Y205693D01*
X72431D01*
X71161Y204424D01*
Y200615D01*
Y204424D01*
X69892Y205693D01*
X68622D01*
X67352Y204424D01*
Y200615D01*
M02*
