G04*
G04 #@! TF.GenerationSoftware,Altium Limited,Altium Designer,24.1.2 (44)*
G04*
G04 Layer_Color=16711935*
%FSLAX44Y44*%
%MOMM*%
G71*
G04*
G04 #@! TF.SameCoordinates,89316901-82C1-47DA-9B1A-9EFE6001FB66*
G04*
G04*
G04 #@! TF.FilePolarity,Negative*
G04*
G01*
G75*
%ADD32R,1.6002X1.4732*%
%ADD49O,1.1016X1.9016*%
%ADD50O,1.1016X2.1016*%
%ADD51C,0.8532*%
%ADD52C,1.8032*%
%ADD53R,1.8032X1.8032*%
%ADD54C,1.7016*%
%ADD55R,1.7016X1.7016*%
D32*
X48260Y114300D02*
D03*
Y137160D02*
D03*
X273050Y184150D02*
D03*
Y161290D02*
D03*
D49*
X109454Y14941D02*
D03*
X195854D02*
D03*
D50*
Y56942D02*
D03*
X109454Y56940D02*
D03*
D51*
X123754Y51941D02*
D03*
X181554D02*
D03*
D52*
X48260Y195580D02*
D03*
Y220980D02*
D03*
D53*
Y246380D02*
D03*
D54*
X298450Y83820D02*
D03*
Y109220D02*
D03*
Y134620D02*
D03*
Y160020D02*
D03*
Y185420D02*
D03*
Y210820D02*
D03*
Y236220D02*
D03*
Y261620D02*
D03*
Y287020D02*
D03*
Y312420D02*
D03*
Y337820D02*
D03*
Y363220D02*
D03*
Y388620D02*
D03*
Y414020D02*
D03*
Y439420D02*
D03*
Y464820D02*
D03*
X12700Y85090D02*
D03*
Y110490D02*
D03*
Y135890D02*
D03*
Y161290D02*
D03*
Y186690D02*
D03*
Y212090D02*
D03*
Y237490D02*
D03*
Y262890D02*
D03*
Y288290D02*
D03*
Y313690D02*
D03*
Y339090D02*
D03*
Y364490D02*
D03*
Y389890D02*
D03*
Y415290D02*
D03*
Y440690D02*
D03*
Y466090D02*
D03*
D55*
X298450Y490220D02*
D03*
X12700Y491490D02*
D03*
M02*
